<svg xmlns="http://www.w3.org/2000/svg" width="640" height="400" viewBox="0 0 640 400">
<defs>
  <style>
    text { font-family: -apple-system, Arial, sans-serif; }
  </style>
</defs>
<rect width="640" height="400" fill="#f0eee8"/>
<polygon points="39.0,43.1 86.1,43.1 139.8,43.1 223.7,43.1 290.0,43.1 386.3,43.1 443.9,43.1 465.1,74.7 465.1,88.6 455.1,102.6 447.6,116.5 442.6,133.9 438.9,151.3 432.6,166.9 423.8,179.1 420.1,196.5 426.3,210.4 430.1,222.6 421.3,238.3 417.6,255.7 423.8,269.6 426.3,285.3 433.8,304.4 432.6,332.2 432.6,347.9 423.8,345.3 411.3,340.9 395.1,334.0 383.8,327.0 368.8,320.1 355.0,307.9 345.0,297.4 333.8,281.8 322.5,267.9 318.7,253.9 318.7,236.5 321.3,222.6 333.8,205.2 342.5,198.3 351.3,208.7 355.0,217.4 348.8,224.4 343.8,231.3 340.0,210.4 333.8,196.5 337.5,177.4 333.8,158.2 321.3,146.1 310.0,135.6 298.7,125.2 283.7,116.5 256.2,109.5 223.7,95.6 196.1,93.9 173.6,97.3 158.6,109.5 142.3,114.7 123.6,116.5 101.1,100.8 86.1,99.1 73.5,93.9 62.3,97.3 51.0,88.6 42.3,86.6 39.0,43.1" fill="#dedad2" stroke="#b8b0a4" stroke-width="1" stroke-linejoin="round"/>
<polygon points="500.3,43.1 500.3,73.0 500.3,116.5 500.3,160.0 500.3,264.4 508.9,304.4 521.4,332.2 533.9,347.9 569.0,356.6 498.9,349.6 478.9,347.0 468.9,347.0 466.4,339.2 466.4,325.3 462.6,299.2 460.1,273.1 461.4,241.8 462.6,220.9 460.1,203.5 456.4,191.3 452.6,175.6 448.9,160.0 443.9,144.3 437.6,128.7 435.1,109.5 432.6,93.9 422.6,81.7 412.6,71.2 486.4,43.1 500.3,43.1" fill="#dedad2" stroke="#b8b0a4" stroke-width="1" stroke-linejoin="round"/>
<polygon points="465.1,74.7 461.4,88.6 453.9,104.3 448.9,120.0 445.1,135.6 440.1,153.0 433.8,170.4 428.8,186.1 426.3,200.0 428.8,212.2 431.3,224.4 423.8,240.0 420.1,257.4 425.1,271.3 427.6,287.0 435.1,307.9 433.8,332.2 432.6,347.9 430.1,345.3 432.6,330.5 433.8,307.9 438.9,290.5 446.4,278.3 451.4,266.1 451.4,252.2 447.6,238.3 441.4,222.6 445.1,210.4 452.6,196.5 453.9,182.6 447.6,168.7 443.9,153.0 440.1,133.9 441.4,116.5 447.6,100.8 452.6,85.2 465.1,74.7" fill="#b8d8f0" stroke="#90b8d8" stroke-width="0.5" stroke-linejoin="round"/>
<polygon points="333.9,169.7 338.1,167.8 343.8,167.8 355.0,168.7 368.8,168.7 376.3,167.8 388.8,168.7 401.3,168.7 410.1,172.2 410.1,186.1 410.1,203.5 410.1,220.9 407.6,234.8 401.3,250.5 391.3,266.1 383.8,278.3 380.1,290.5 365.0,299.2 355.0,292.2 348.8,281.8 346.3,264.4 343.8,250.5 342.5,234.8 342.5,220.9 341.3,208.7 337.5,196.5 333.9,184.3 333.9,169.7" fill="#c8a864" fill-opacity="0.55" stroke="#9a7030" stroke-width="1.2" stroke-linejoin="round"/>
<polygon points="39.0,43.1 86.1,43.1 139.8,43.1 223.7,43.1 290.0,43.1 386.3,43.1 443.9,43.1 465.1,74.7 465.1,88.6 455.1,102.6 447.6,116.5 442.6,133.9 438.9,151.3 432.6,166.9 423.8,179.1 420.1,196.5 426.3,210.4 430.1,222.6 421.3,238.3 417.6,255.7 423.8,269.6 426.3,285.3 433.8,304.4 432.6,332.2 432.6,347.9 423.8,345.3 411.3,340.9 395.1,334.0 383.8,327.0 368.8,320.1 355.0,307.9 345.0,297.4 333.8,281.8 322.5,267.9 318.7,253.9 318.7,236.5 321.3,222.6 333.8,205.2 342.5,198.3 351.3,208.7 355.0,217.4 348.8,224.4 343.8,231.3 340.0,210.4 333.8,196.5 337.5,177.4 333.8,158.2 321.3,146.1 310.0,135.6 298.7,125.2 283.7,116.5 256.2,109.5 223.7,95.6 196.1,93.9 173.6,97.3 158.6,109.5 142.3,114.7 123.6,116.5 101.1,100.8 86.1,99.1 73.5,93.9 62.3,97.3 51.0,88.6 42.3,86.6 39.0,43.1" fill="none" stroke="#b8b0a4" stroke-width="0.8" stroke-linejoin="round"/>
<rect x="340.1" y="182.9" width="8" height="8" fill="#d4cfc8" stroke="#888" stroke-width="0.8"/>
<text x="344.1" y="202.9" font-size="9" fill="#666" text-anchor="middle" font-weight="500">DC</text>
<circle cx="397.3" cy="118.2" r="3" fill="#888" stroke="#555" stroke-width="0.6"/>
<text x="402.3" y="122.2" font-size="9" fill="#555">Baltimore</text>
<circle cx="412.3" cy="172.5" r="2.5" fill="#888" stroke="#555" stroke-width="0.6"/>
<text x="417.3" y="176.5" font-size="8.5" fill="#666">Annapolis</text>
<circle cx="380.7" cy="174.8" r="8" fill="white" stroke="#c0101e" stroke-width="1.5"/>
<circle cx="380.7" cy="174.8" r="6" fill="#c0101e"/>
<circle cx="380.7" cy="174.8" r="2.5" fill="white"/>
<text x="390.7" y="170.8" font-size="12" font-weight="700" fill="white" stroke="white" stroke-width="4" stroke-linejoin="round" paint-order="stroke">Bowie</text>
<text x="390.7" y="170.8" font-size="12" font-weight="700" fill="#1a1818">Bowie</text>
<text x="390.7" y="183.8" font-size="8.5" fill="white" stroke="white" stroke-width="3" stroke-linejoin="round" paint-order="stroke">City of Bowie, MD</text>
<text x="390.7" y="183.8" font-size="8.5" fill="#52504c">City of Bowie, MD</text>
<text x="390.7" y="195.8" font-size="7.5" fill="white" stroke="white" stroke-width="3" paint-order="stroke">38.965°N  76.744°W</text>
<text x="390.7" y="195.8" font-size="7.5" fill="#8a837c">38.965°N  76.744°W</text>
<text x="375.0" y="219.4" font-size="8.5" font-weight="600" fill="white" stroke="white" stroke-width="3" paint-order="stroke" text-anchor="middle">Prince George's</text>
<text x="375.0" y="219.4" font-size="8.5" font-weight="600" fill="#7a5010" text-anchor="middle">Prince George's</text>
<text x="375.0" y="231.4" font-size="8.5" fill="white" stroke="white" stroke-width="3" paint-order="stroke" text-anchor="middle">County</text>
<text x="375.0" y="231.4" font-size="8.5" fill="#7a5010" text-anchor="middle">County</text>
<text x="280" y="42" font-size="13" font-weight="700" fill="#52504c" text-anchor="middle">Maryland</text>
<text x="451.4" y="247.0" font-size="8" fill="#2a6a9a" text-anchor="middle" transform="rotate(-72 451.4 247.0)">Chesapeake Bay</text>
<polygon points="584,48 577,72 584,66 591,72" fill="#1a1818"/>
<polygon points="584,48 577,72 584,66" fill="#1a1818"/>
<polygon points="584,48 591,72 584,66" fill="white" stroke="#1a1818" stroke-width="0.5"/>
<text x="584" y="44" font-size="11" font-weight="700" fill="#1a1818" text-anchor="middle">N</text>
<circle cx="584" cy="59" r="17" fill="none" stroke="#b8b0a4" stroke-width="0.8"/>
<rect x="36" y="356" width="34.9" height="5" fill="#1a1818"/>
<rect x="70.9" y="356" width="34.9" height="5" fill="white" stroke="#1a1818" stroke-width="0.8"/>
<line x1="36" y1="354" x2="36" y2="363" stroke="#1a1818" stroke-width="1"/>
<line x1="70.9" y1="354" x2="70.9" y2="363" stroke="#1a1818" stroke-width="1"/>
<line x1="105.7" y1="354" x2="105.7" y2="363" stroke="#1a1818" stroke-width="1"/>
<text x="36" y="352" font-size="8" fill="#1a1818" text-anchor="middle">0</text>
<text x="70.9" y="352" font-size="8" fill="#1a1818" text-anchor="middle">15</text>
<text x="105.7" y="352" font-size="8" fill="#1a1818" text-anchor="middle">30 mi</text>
<rect x="1" y="1" width="638" height="398" fill="none" stroke="#c4bdb4" stroke-width="1.5"/>
</svg>