<?xml version="1.0" encoding="UTF-8" standalone="no"?>
<svg xmlns="http://www.w3.org/2000/svg"
     width="880" height="530"
     viewBox="0 0 880 530">

  <defs>
    <filter id="shadow" x="-20%" y="-20%" width="140%" height="140%">
      <feDropShadow dx="2" dy="2" stdDeviation="3" flood-color="#00000033"/>
    </filter>
    <marker id="arrowhead" markerWidth="8" markerHeight="6" refX="8" refY="3" orient="auto">
      <polygon points="0 0, 8 3, 0 6" fill="#333"/>
    </marker>
    <!-- Clip path to keep map within canvas -->
    <clipPath id="map-clip">
      <rect x="15" y="38" width="860" height="475"/>
    </clipPath>
  </defs>

  <rect width="880" height="530" fill="#dceef8"/>

  <rect x="15" y="38" width="860" height="475" fill="#c0d8f0" rx="4"/>

  <!-- Title -->
  <rect x="10" y="4" width="860" height="30" rx="3" fill="#1a1a2e"/>
  <text x="440.0" y="24" text-anchor="middle" font-family="Georgia, serif"
        font-size="13" font-weight="bold" fill="white">
    Maryland &#8212; Location of Bowie, Prince George's County
  </text>

  <g clip-path="url(#map-clip)">
  <g transform="translate(40,55)">
  <g id="layer1" transform="translate(82.080688,-315.22)">
    <g id="Maryland" transform="matrix(17.562057,3.7342961,-3.7342961,17.562057,-7556.7532,-3819.0777)">

      <path id="MD_Allegany" d="m 466.11198,136.674 0.366,-0.068 0.301,1.091 -1.032,1.767 -1.879,0.103 -1.19,-0.473 -1.618,2.227 -1.064,-0.239 0.782,-3.426 1.188,-0.217 4.146,-0.765"
            style="fill:#d4e8c2;stroke:#6b9e5e;stroke-width:0.05;opacity:1"/>
      <path id="MD_Garrett" d="m 460.77798,137.656 -0.782,3.426 -1.834,2.213 -1.614,1.937 -1.059,-6.612 0.821,-0.148 4.468,-0.816"
            style="fill:#d4e8c2;stroke:#6b9e5e;stroke-width:0.05;opacity:1"/>
      <path id="MD_St._Marys" d="m 488.93198,150.759 0.473,1.234 -0.527,1.149 -3.705,-0.748 -0.395,-0.532 -0.515,-0.896 0.004,-0.24 0.536,-1.644 0.087,-0.077 0.346,-0.049 0.185,-0.015 0.397,0.054 3.114,1.764"
            style="fill:#d4e8c2;stroke:#6b9e5e;stroke-width:0.05;opacity:1"/>
      <path id="MD_Charles" d="m 481.25198,147.189 0.596,1.072 0.157,-0.338 0.026,-0.1 0.046,-0.058 0.13,-0.089 0.317,-0.149 1.027,-0.177 1.221,0.285 0.039,0.072 0.245,0.685 0.5,0.149 0.153,-0.005 0.109,0.459 -0.397,-0.054 -0.185,0.015 -0.346,0.049 -0.087,0.077 -0.536,1.644 -0.004,0.24 0.515,0.896 0.052,0.329 0,0.167 -0.022,0.1 -3.867,-0.618 -0.104,-0.023 -0.378,-0.184 -0.217,-0.374 -0.27,-0.838 0.026,-0.411 0.154,-0.554 0.406,-0.731 0.437,-0.541 0.257,-0.995"
            style="fill:#d4e8c2;stroke:#6b9e5e;stroke-width:0.05;opacity:1"/>
      <path id="MD_Worcester" d="m 499.01498,146.808 2.861,-0.625 0.05,0.473 0.004,0.338 -0.009,0.461 -0.04,0.419 -0.393,2.957 -0.026,0.181 -0.032,0.125 -0.056,0.207 -0.033,0.149 -0.159,0.495 -3.672,1.249 0.558,-1.392 -0.316,-1.155 -0.918,-1.094 2.41,-0.681 0.302,-0.667 0.05,-0.303 -0.217,-0.607 -0.364,-0.53"
            style="fill:#d4e8c2;stroke:#6b9e5e;stroke-width:0.05;opacity:1"/>
      <path id="MD_Wicomico" d="m 495.18398,146.202 0.135,0.486 0.108,0.369 0.116,0.407 0.303,-0.05 0.689,-0.117 0.036,-0.004 0.293,-0.055 0.586,-0.112 0.206,-0.041 0.502,-0.094 0.037,-0.006 0.137,-0.027 0.159,-0.03 0.379,-0.086 0.145,-0.034 0.364,0.53 0.217,0.607 -0.05,0.303 -0.302,0.667 -2.41,0.681 -2.362,1.049 -0.587,-0.203 0.019,-0.968 0.306,-2.001 0.063,-0.118 0.208,-0.117 0.233,-0.212 0.47,-0.824"
            style="fill:#d4e8c2;stroke:#6b9e5e;stroke-width:0.05;opacity:1"/>
      <path id="MD_Washington" d="m 468.83898,136.16 6.099,-1.154 -0.145,0.708 -0.148,0.4 -0.081,0.137 -0.353,0.228 -0.025,0.14 -0.078,0.938 -0.023,1.208 -0.184,1.762 -0.387,0.045 -1.461,-2.006 -2.228,-1.23 -0.166,-0.184 -0.45,-0.326 -0.361,-0.135 -0.364,-0.04 -0.334,-0.009 -0.059,0.022 -0.068,0.077 -0.256,0.405 -0.348,0.641 -0.117,0.014 -0.523,-0.104 -0.301,-1.091 2.361,-0.446"
            style="fill:#d4e8c2;stroke:#6b9e5e;stroke-width:0.05;opacity:1"/>
      <path id="MD_Calvert" d="m 488.93198,150.759 -3.114,-1.764 -0.109,-0.459 -0.662,-2.682 0.049,-0.108 0.27,-0.234 0.248,-0.028 0.374,0.536 0.686,-0.03 0.004,0.171 0.059,0.27 0.513,1.745 0.046,0.126 0.157,0.289 0.19,0.252 0.446,0.324 0.834,0.672 0.036,0.067 0.045,0.267 -0.072,0.586"
            style="fill:#d4e8c2;stroke:#6b9e5e;stroke-width:0.05;opacity:1"/>
      <path id="MD_Talbot" d="m 491.78898,142.177 0.095,0.306 -0.12,1.839 -0.101,0.405 0.032,0.045 0.527,0.443 0.27,0.062 -1.906,0.951 0.031,-0.058 -0.139,-0.253 -1.019,-0.811 -0.167,0.019 -0.545,0.193 -0.032,0.023 -0.103,0.238 0,0.131 0.158,0.149 0.017,0.131 -0.153,0.139 -0.112,-0.171 -0.114,-0.852 0.009,-0.28 0.192,-0.747 0.021,-0.032 0.261,-0.311 0.699,-0.054 2.199,-1.505"
            style="fill:#d4e8c2;stroke:#6b9e5e;stroke-width:0.05;opacity:1"/>
      <path id="MD_Caroline" d="m 491.78898,142.177 1.343,-3.282 1.79,6.373 -2.43,0.009 -0.27,-0.062 -0.527,-0.443 -0.032,-0.045 0.101,-0.405 0.12,-1.839 -0.095,-0.306"
            style="fill:#d4e8c2;stroke:#6b9e5e;stroke-width:0.05;opacity:1"/>
      <path id="MD_Kent" d="m 490.03598,136.512 2.272,-0.546 0.284,1.009 0.18,0.636 -1.289,0.22 -0.821,0.231 -0.329,0.144 -0.383,0.486 -0.672,1.686 -0.418,0.199 -0.307,-0.009 -0.586,-0.599 -0.014,-0.262 0.036,-0.207 0.415,-1.93 0.113,-0.193 0.473,-0.636 1.046,-0.229"
            style="fill:#d4e8c2;stroke:#6b9e5e;stroke-width:0.05;opacity:1"/>
      <path id="MD_Baltimore_City" d="m 485.33498,139.555 -0.91,-0.064 -0.767,-0.253 -0.188,-1.222 1.856,0 0.009,1.539"
            style="fill:#d4e8c2;stroke:#6b9e5e;stroke-width:0.05;opacity:1"/>
      <path id="MD_Prince_Georges" d="m 482.08098,141.375 0.536,0.269 1.695,1.236 0.37,0.825 0.365,2.149 0.662,2.682 -0.153,0.005 -0.5,-0.149 -0.245,-0.685 -0.039,-0.072 -1.221,-0.285 -1.027,0.177 -0.317,0.149 -0.13,0.089 -0.046,0.058 -0.026,0.1 -0.157,0.338 -0.596,-1.072 0.243,-1.124 -0.005,-0.057 1.074,-1.686 -1.173,-0.604 0.69,-2.343"
            style="fill:#ffd6a5;stroke:#cc6600;stroke-width:0.07;opacity:1"/>
      <path id="MD_Anne_Arundel" d="m 485.33498,139.555 0.019,0.002 1.198,1.141 0.586,1.077 0.067,0.14 -0.359,1.006 -0.249,0.797 -0.365,1.635 0.087,0.286 0.066,0.113 0.289,0.238 -0.686,0.03 -0.374,-0.536 -0.248,0.028 -0.27,0.234 -0.049,0.108 -0.365,-2.149 -0.37,-0.825 -1.695,-1.236 1.095,-1.694 0.713,-0.459 0.91,0.064"
            style="fill:#d4e8c2;stroke:#6b9e5e;stroke-width:0.05;opacity:1"/>
      <path id="MD_Howard" d="m 481.56798,138.58 2.144,1.37 -1.095,1.694 -0.536,-0.269 -0.162,0.121 -0.424,0.023 -0.113,-0.036 -2.068,-1.407 -0.474,-0.486 -0.198,-0.258 -0.009,-0.03 0.018,-0.069 0.123,-0.134 0.008,-0.009 2.786,-0.51"
            style="fill:#d4e8c2;stroke:#6b9e5e;stroke-width:0.05;opacity:1"/>
      <path id="MD_Montgomery" d="m 478.77398,139.099 -0.123,0.134 -0.018,0.069 0.009,0.03 0.198,0.258 0.474,0.486 2.068,1.407 0.113,0.036 0.424,-0.023 0.162,-0.121 -0.69,2.343 -0.513,-0.266 -0.551,0.897 -2.347,-1.176 -0.469,0.053 -0.483,0.023 -0.355,-0.023 -0.019,-0.008 -0.639,-0.429 -0.063,-0.045 -0.006,0 -0.057,-0.076 -0.069,-0.22 -0.003,-0.01 0.012,-0.117 0.024,-0.162 0.004,-0.059 0.041,-0.108 0.396,-0.626 2.48,-2.267"
            style="fill:#d4e8c2;stroke:#6b9e5e;stroke-width:0.05;opacity:1"/>
      <path id="MD_Queen_Annes" d="m 491.78898,142.177 -2.199,1.505 -0.312,-3.304 0.672,-1.686 0.383,-0.486 0.329,-0.144 0.821,-0.231 1.289,-0.22 0.36,1.284 -1.343,3.282"
            style="fill:#d4e8c2;stroke:#6b9e5e;stroke-width:0.05;opacity:1"/>
      <path id="MD_Cecil" d="m 487.80498,132.351 3.345,-0.716 1.158,4.331 -2.272,0.546 -1.169,-2.015 -2.004,-1.942 0.942,-0.204"
            style="fill:#d4e8c2;stroke:#6b9e5e;stroke-width:0.05;opacity:1"/>
      <path id="MD_Harford" d="m 486.79998,132.568 0.063,-0.013 2.004,1.942 0.385,1.127 0.014,0.058 -0.965,1.135 -0.379,0.448 -0.406,0.445 -0.266,-0.175 -0.234,-0.168 -0.049,-0.116 -0.884,-1.051 -0.59,-0.446 -0.582,-0.176 -0.202,0.041 -0.262,-0.207 -0.405,-0.605 -0.095,-0.225 -0.325,-1.348 3.178,-0.666"
            style="fill:#d4e8c2;stroke:#6b9e5e;stroke-width:0.05;opacity:1"/>
      <path id="MD_Baltimore_Co." d="m 481.52298,133.671 2.099,-0.437 0.325,1.348 0.095,0.225 0.405,0.605 0.262,0.207 0.202,-0.041 0.582,0.176 0.59,0.446 0.884,1.051 0.049,0.116 -0.049,0 -0.167,0.077 -0.234,0.78 -0.098,0.563 0.17,0.086 0.056,-0.019 -0.011,0.095 -0.031,0.105 -0.267,0.45 -0.139,0.167 -0.608,-0.059 -0.284,-0.055 -0.019,-0.002 -0.009,-1.539 -1.856,0 0.188,1.222 0.767,0.253 -0.713,0.459 -2.144,-1.37 -0.383,-1.343 0.157,-1.019 0.181,-2.547"
            style="fill:#d4e8c2;stroke:#6b9e5e;stroke-width:0.05;opacity:1"/>
      <path id="MD_Carroll" d="m 481.52298,133.671 -0.181,2.547 -0.157,1.019 0.383,1.343 -2.786,0.51 0.203,-1.479 0.036,-0.396 -0.009,-0.027 -1.208,-0.883 -0.817,-0.741 0.387,-1.041 2.097,-0.424 2.052,-0.428"
            style="fill:#d4e8c2;stroke:#6b9e5e;stroke-width:0.05;opacity:1"/>
      <path id="MD_Frederick" d="m 475.03198,134.987 2.342,-0.464 -0.387,1.041 0.817,0.741 1.208,0.883 0.009,0.027 -0.036,0.396 -0.203,1.479 -0.008,0.009 -2.48,2.267 -2.393,-0.839 0.184,-1.762 0.023,-1.208 0.078,-0.938 0.025,-0.14 0.353,-0.228 0.081,-0.137 0.148,-0.4 0.145,-0.708 0.094,-0.019"
            style="fill:#d4e8c2;stroke:#6b9e5e;stroke-width:0.05;opacity:1"/>
      <path id="MD_Somerset" d="m 494.47198,150.645 2.362,-1.049 0.918,1.094 0.316,1.155 -0.558,1.392 -0.33,0.645 -1.186,-0.032 -0.874,-1.952 -0.648,-1.253 m -1.818,2.001 0.33,-0.116 0.126,-0.262 0.054,-0.256 0.14,0.328 0.143,0.424 0.073,0.23 -0.045,0.071 -0.109,0.045 -0.148,-0.045 -0.274,-0.197 -0.29,-0.222 m 0.8,2.001 -0.109,-0.374 -0.077,-0.4 -0.006,-0.14 0.028,-0.094 0.185,-0.131 0.077,-0.028 0.09,0.023 0.329,0.139 0.067,0.055 0.023,0.121 -0.131,0.06 -0.022,0.391 0.067,0.271 0.018,0.243 -0.027,0.247 -0.271,0.077 -0.179,-0.179 -0.062,-0.281"
            style="fill:#d4e8c2;stroke:#6b9e5e;stroke-width:0.05;opacity:1"/>
      <path id="MD_Dorchester" d="m 492.49198,145.277 2.43,-0.009 0.262,0.934 -0.47,0.824 -0.233,0.212 -0.208,0.117 -0.063,0.118 -0.306,2.001 -0.019,0.968 -1.172,0.356 -1.366,0.204 -0.139,-0.045 -0.775,-0.473 -0.045,-0.033 -0.14,-0.252 -0.613,-1.204 -0.32,-0.707 0.083,-1.496 0.056,-0.095 0.222,-0.189 0.09,-0.05 0.82,-0.23 1.906,-0.951 m 0.162,7.369 -0.022,-0.018 -0.009,0.006 -0.086,-0.149 -0.072,-0.253 -0.072,-0.537 0.14,-0.171 0.221,-0.05 0.333,0.271 0.019,0.077 0.058,0.19 -0.054,0.256 -0.126,0.262 -0.33,0.116"
            style="fill:#d4e8c2;stroke:#6b9e5e;stroke-width:0.05;opacity:1"/>
    </g>
  </g>
  </g>
  </g>

  <!-- Bowie location marker -->
  <circle cx="532.5" cy="239.8" r="9" fill="#00000040"/>
  <circle cx="531.0" cy="238.3" r="10" fill="white" stroke="#cc0000" stroke-width="1.8"/>
  <circle cx="531.0" cy="238.3" r="7" fill="#cc0000" stroke="white" stroke-width="1.2"/>
  <circle cx="531.0" cy="238.3" r="2.5" fill="white"/>

  <!-- Bowie label -->
  <rect x="545.0" y="210.3" width="100" height="30" rx="4"
        fill="white" fill-opacity="0.95" stroke="#cc0000" stroke-width="1.2"/>
  <text x="595.0" y="223.3" text-anchor="middle"
        font-family="Georgia, serif" font-size="12" font-weight="bold" fill="#cc0000">Bowie</text>
  <text x="595.0" y="235.3" text-anchor="middle"
        font-family="Arial, sans-serif" font-size="8" fill="#444">Prince George's Co.</text>
  <line x1="545.0" y1="225.3" x2="540.0" y2="234.3" stroke="#cc0000" stroke-width="0.9"/>

  <!-- Coordinates -->
  <text x="531.0" y="263.3" text-anchor="middle"
        font-family="Arial, sans-serif" font-size="8" fill="#333">
    38.965&#176;N&#160;&#160;76.744&#176;W
  </text>

  <!-- PG County label -->
  <text x="468" y="275" text-anchor="middle" font-family="Arial, sans-serif"
        font-size="9" fill="#883300" font-style="italic" font-weight="bold">Prince George's</text>
  <text x="468" y="287" text-anchor="middle" font-family="Arial, sans-serif"
        font-size="9" fill="#883300" font-style="italic" font-weight="bold">County</text>

  <!-- North Arrow -->
  <rect x="800" y="70" width="44" height="70" rx="4"
        fill="white" fill-opacity="0.85" stroke="#aaa" stroke-width="0.8"/>
  <g id="north-arrow" transform="translate(820,90)">
    <polygon points="0,-18 -7,0 0,-4 7,0" fill="#333"/>
    <polygon points="0,18 -7,0 0,4 7,0" fill="white" stroke="#333" stroke-width="0.5"/>
    <circle cx="0" cy="0" r="3" fill="white" stroke="#333" stroke-width="0.8"/>
    <text x="0" y="-22" text-anchor="middle" font-family="Arial" font-size="11"
          font-weight="bold" fill="#1a1a2e">N</text>
  </g>

  <!-- Scale Bar -->
  <rect x="42" y="433" width="185" height="40" rx="3"
        fill="white" fill-opacity="0.9" stroke="#aaa" stroke-width="0.5"/>
  <text x="102" y="445" text-anchor="middle"
        font-family="Arial, sans-serif" font-size="9" font-weight="bold" fill="#333">Scale</text>
  <rect x="50" y="455" width="53" height="8" fill="#333"/>
  <rect x="103" y="455" width="53" height="8" fill="white" stroke="#333" stroke-width="0.8"/>
  <line x1="50" y1="455" x2="50" y2="466" stroke="#333" stroke-width="1.2"/>
  <line x1="103" y1="455" x2="103" y2="466" stroke="#333" stroke-width="0.8"/>
  <line x1="155" y1="455" x2="155" y2="466" stroke="#333" stroke-width="1.2"/>
  <text x="50" y="475" text-anchor="middle" font-family="Arial" font-size="8.5" fill="#333">0</text>
  <text x="103" y="475" text-anchor="middle" font-family="Arial" font-size="8.5" fill="#333">25</text>
  <text x="155" y="475" text-anchor="middle" font-family="Arial" font-size="8.5" fill="#333">50 km</text>

  <!-- Legend -->
  <rect x="602" y="412" width="165" height="82" rx="4"
        fill="white" fill-opacity="0.92" stroke="#aaa" stroke-width="0.8"/>
  <text x="684" y="425" text-anchor="middle" font-family="Georgia, serif"
        font-size="10" font-weight="bold" fill="#333">Legend</text>
  <rect x="610" y="435" width="14" height="11" fill="#d4e8c2" stroke="#6b9e5e" stroke-width="0.7"/>
  <text x="630" y="445" font-family="Arial" font-size="9" fill="#333">Maryland Counties</text>
  <rect x="610" y="452" width="14" height="11" fill="#ffd6a5" stroke="#cc6600" stroke-width="0.7"/>
  <text x="630" y="462" font-family="Arial" font-size="9" fill="#333">Prince George's County</text>
  <circle cx="617" cy="477" r="6" fill="#cc0000" stroke="white" stroke-width="1"/>
  <circle cx="617" cy="477" r="2.5" fill="white"/>
  <text x="630" y="481" font-family="Arial" font-size="9" fill="#333">Bowie (City)</text>

  <!-- Attribution -->
  <text x="868" y="524" text-anchor="end"
        font-family="Arial" font-size="7" fill="#999">
    Base map: Wikimedia Commons / County_MD.svg (CC BY-SA) | Coords: 38.96472&#176;N 76.74444&#176;W
  </text>

</svg>