<?xml version="1.0" encoding="utf-8"?>
<!--Designed by Vexels.com - 2018 All Rights Reserved - https://vexels.com/terms-and-conditions/-->
<svg version="1.1" id="Layer_1" xmlns="http://www.w3.org/2000/svg" xmlns:xlink="http://www.w3.org/1999/xlink" x="0px" y="0px"
	 viewBox="0 0 1200 1200" enable-background="new 0 0 1200 1200" xml:space="preserve">
<g>
	<g>
		<polygon points="600,426.104 600,303.987 600,120.091 507.303,120.091 507.303,365.046 		"/>
		<polygon points="414.607,303.987 414.607,120.091 321.91,120.091 321.91,242.929 		"/>
		<polygon points="229.213,120.091 140.014,120.091 229.213,181.87 		"/>
		<polygon points="321.91,242.929 229.213,181.87 229.213,303.987 321.91,365.045 		"/>
		<polygon points="142.697,120.091 50,120.091 50,181.87 142.697,242.929 		"/>
		<polygon points="142.697,242.929 142.697,484.698 229.213,484.698 229.213,303.987 		"/>
		<polygon points="414.607,426.104 321.91,365.045 321.91,484.698 414.607,484.698 		"/>
		<polygon points="507.303,487.163 507.303,365.046 414.607,303.987 414.607,426.104 		"/>
		<polygon fill="#EAAB00" points="600,484.698 600,426.104 507.303,365.046 507.303,484.698 		"/>
		<polygon fill="#EAAB00" points="142.697,242.929 50,181.87 50,484.698 142.697,484.698 		"/>
		<polygon fill="#EAAB00" points="414.607,484.698 506.365,484.698 414.607,426.104 		"/>
		<polygon fill="#EAAB00" points="507.303,365.046 507.303,120.091 414.607,120.091 414.607,303.987 		"/>
		<polygon fill="#EAAB00" points="321.91,242.929 321.91,120.091 229.213,120.091 229.213,181.87 		"/>
		<polygon fill="#EAAB00" points="229.213,303.987 229.213,181.87 142.697,120.812 142.697,242.929 		"/>
		<polygon fill="#EAAB00" points="229.213,303.987 229.213,484.698 321.91,484.698 321.91,365.045 		"/>
		<polygon fill="#EAAB00" points="414.607,426.104 414.607,303.987 321.91,242.929 321.91,365.045 		"/>
		<path fill="#FFFFFF" d="M1109.377,330.204h-21.175v19.943c0,12.949-8.68,23.447-21.629,23.447s-21.629-10.498-21.629-23.447
			v-19.943H896.629v49.438h22.247c12.949,0,23.447,11.77,23.447,24.719c0,12.95-10.498,24.719-23.447,24.719h-22.247v8.992
			c0,12.949-12.36,23.446-24.719,23.446v23.18h92.392h91.589H1150V305.485h-17.175
			C1132.825,317.844,1122.327,330.204,1109.377,330.204z"/>
		<path fill="#FFFFFF" d="M612.606,305.485c0-12.36,10.497-24.719,23.447-24.719h19.565v-22.939
			c0-12.949,11.769-23.446,24.719-23.446c12.949,0,24.72,10.497,24.72,23.446v22.939h142.135v-49.438h-20.637
			c-12.948,0-23.445-11.77-23.445-24.719c0-12.949,10.498-24.719,23.445-24.719h20.637v-11.986
			c0-12.949,12.359-23.447,24.719-23.447v-26.365H600v185.393H612.606z"/>
		<path fill="#981E32" d="M847.191,438.072v-8.992h-20.637c-12.948,0-23.445-11.769-23.445-24.719
			c0-12.949,10.498-24.719,23.445-24.719h20.637v-49.438H705.056v19.943c0,12.949-11.771,23.447-24.72,23.447
			c-12.949,0-24.719-10.498-24.719-23.447v-19.943h-19.565c-12.95,0-23.447-12.36-23.447-24.719H600v120.619v58.594h89.541h91.586
			h90.783v-23.18C859.551,461.518,847.191,451.021,847.191,438.072z"/>
		<path fill="#981E32" d="M871.91,120.091v26.365c12.36,0,24.719,10.498,24.719,23.447v11.986h22.247
			c12.949,0,23.447,11.77,23.447,24.719c0,12.949-10.498,24.719-23.447,24.719h-22.247v49.438h148.315v-22.939
			c0-12.949,8.679-23.446,21.629-23.446s21.629,10.497,21.629,23.446v22.939h21.175c12.95,0,23.447,12.36,23.447,24.719H1150
			V120.091H871.91z"/>
		<path fill="#981E32" d="M871.91,461.518c12.36,0,24.719-10.497,24.719-23.446v-8.992h22.247c12.949,0,23.447-11.769,23.447-24.719
			c0-12.949-10.498-24.719-23.447-24.719h-22.247v-49.438h148.315v19.943c0,12.949,8.679,23.447,21.629,23.447
			s21.629-10.498,21.629-23.447v-19.943h21.175c12.95,0,23.447-12.36,23.447-24.719H871.91V461.518z"/>
		<path fill="#FFFFFF" d="M612.606,305.485c0,12.36,10.497,24.719,23.447,24.719h19.565v19.943
			c0,12.949,11.769,23.447,24.719,23.447c12.949,0,24.72-10.498,24.72-23.447v-19.943h142.135v49.438h-20.637
			c-12.948,0-23.445,11.77-23.445,24.719c0,12.95,10.498,24.719,23.445,24.719h20.637v8.992c0,12.949,12.359,23.446,24.719,23.446
			V305.485H612.606z"/>
		<path fill="#FFFFFF" d="M1132.825,305.485c0-12.36-10.498-24.719-23.447-24.719h-21.175v-22.939
			c0-12.949-8.68-23.446-21.629-23.446s-21.629,10.497-21.629,23.446v22.939H896.629v-49.438h22.247
			c12.949,0,23.447-11.77,23.447-24.719c0-12.949-10.498-24.719-23.447-24.719h-22.247v-11.986c0-12.949-12.36-23.447-24.719-23.447
			v159.028H1132.825z"/>
		<path fill="#981E32" d="M847.191,169.903v11.986h-20.637c-12.948,0-23.445,11.77-23.445,24.719
			c0,12.949,10.498,24.719,23.445,24.719h20.637v49.438H705.056v-22.939c0-12.949-11.771-23.446-24.72-23.446
			c-12.949,0-24.719,10.497-24.719,23.446v22.939h-19.565c-12.95,0-23.447,12.36-23.447,24.719H871.91V146.456
			C859.551,146.456,847.191,156.954,847.191,169.903z"/>
		<path fill="#FFFFFF" d="M583.299,670.091c0,12.36-10.498,24.719-23.447,24.719h-21.65v21.687c0,12.949-8.68,23.447-21.63,23.447
			c-12.949,0-21.629-10.498-21.629-23.447V694.81H346.629v49.438h22.72c12.95,0,23.447,11.77,23.447,24.719
			s-10.497,24.719-23.447,24.719h-22.72v10.735c0,12.949-12.36,23.446-24.719,23.446v27.616H600V670.091H583.299z"/>
		<path fill="#FFFFFF" d="M86.526,645.372h19.092v-21.195c0-12.949,11.769-23.446,24.718-23.446c12.949,0,24.72,10.497,24.72,23.446
			v21.195h142.135v-49.438h-20.162c-12.948,0-23.446-11.769-23.446-24.719s10.498-24.72,23.446-24.72h20.162v-10.242
			c0-12.949,12.36-23.447,24.719-23.447v-28.109h-90.308h-91.588H50v185.393h13.08C63.08,657.732,73.578,645.372,86.526,645.372z"/>
		<path fill="#981E32" d="M506.365,484.698h-91.587H321.91v28.109c12.36,0,24.719,10.498,24.719,23.447v10.242h22.72
			c12.95,0,23.447,11.771,23.447,24.72s-10.497,24.719-23.447,24.719h-22.72v49.438h148.315v-21.195
			c0-12.949,8.68-23.446,21.629-23.446c12.95,0,21.63,10.497,21.63,23.446v21.195h21.65c12.948,0,23.447,12.36,23.447,24.719H600
			V548.221v-63.523H506.365z"/>
		<path fill="#981E32" d="M297.191,804.422v-10.735h-20.162c-12.948,0-23.446-11.77-23.446-24.719s10.498-24.719,23.446-24.719
			h20.162V694.81H155.056v21.687c0,12.949-11.771,23.447-24.72,23.447c-12.949,0-24.718-10.498-24.718-23.447V694.81H86.526
			c-12.948,0-23.446-12.36-23.446-24.719H50v185.393h271.91v-27.616C309.551,827.868,297.191,817.371,297.191,804.422z"/>
		<path fill="#981E32" d="M321.91,827.868c12.36,0,24.719-10.497,24.719-23.446v-10.735h22.72c12.95,0,23.447-11.77,23.447-24.719
			s-10.497-24.719-23.447-24.719h-22.72V694.81h148.315v21.687c0,12.949,8.68,23.447,21.629,23.447
			c12.95,0,21.63-10.498,21.63-23.447V694.81h21.65c12.948,0,23.447-12.36,23.447-24.719H321.91V827.868z"/>
		<path fill="#FFFFFF" d="M63.08,670.091c0,12.36,10.498,24.719,23.446,24.719h19.092v21.687c0,12.949,11.769,23.447,24.718,23.447
			c12.949,0,24.72-10.498,24.72-23.447V694.81h142.135v49.438h-20.162c-12.948,0-23.446,11.77-23.446,24.719
			s10.498,24.719,23.446,24.719h20.162v10.735c0,12.949,12.36,23.446,24.719,23.446V670.091H63.08z"/>
		<path fill="#FFFFFF" d="M559.852,645.372h-21.65v-21.195c0-12.949-8.68-23.446-21.63-23.446
			c-12.949,0-21.629,10.497-21.629,23.446v21.195H346.629v-49.438h22.72c12.95,0,23.447-11.769,23.447-24.719
			s-10.497-24.72-23.447-24.72h-22.72v-10.242c0-12.949-12.36-23.447-24.719-23.447v157.285h261.388
			C583.299,657.732,572.8,645.372,559.852,645.372z"/>
		<path fill="#981E32" d="M321.91,512.807c-12.36,0-24.719,10.498-24.719,23.447v10.242h-20.162
			c-12.948,0-23.446,11.771-23.446,24.72s10.498,24.719,23.446,24.719h20.162v49.438H155.056v-21.195
			c0-12.949-11.771-23.446-24.72-23.446c-12.949,0-24.718,10.497-24.718,23.446v21.195H86.526c-12.948,0-23.446,12.36-23.446,24.719
			h258.83V512.807z"/>
		<polygon points="1057.303,731.397 1150,792.455 1150,484.698 1057.303,484.698 		"/>
		<polygon points="686.517,609.279 686.517,855.485 779.214,855.485 779.214,670.337 		"/>
		<polygon points="600,484.698 600,548.221 686.517,609.279 686.517,484.698 		"/>
		<polygon points="964.607,670.338 964.607,792.454 1057.303,853.513 1057.303,731.397 		"/>
		<polygon points="871.91,731.396 871.91,855.485 964.607,855.485 964.607,792.454 		"/>
		<polygon points="779.214,484.698 689.541,484.698 779.214,548.221 		"/>
		<polygon points="964.607,670.338 964.607,484.698 871.91,484.698 871.91,609.279 		"/>
		<polygon points="779.214,548.221 779.214,670.337 871.91,731.396 871.91,609.279 		"/>
		
			<line fill="none" stroke="#EAAB00" stroke-width="0" stroke-linecap="round" stroke-linejoin="round" x1="779.214" y1="855.485" x2="686.517" y2="855.485"/>
		
			<line fill="none" stroke="#EAAB00" stroke-width="0" stroke-linecap="round" stroke-linejoin="round" x1="871.91" y1="855.485" x2="964.607" y2="855.485"/>
		<polygon fill="#EAAB00" points="964.607,855.485 1055.891,855.485 964.607,792.454 		"/>
		<polygon fill="#EAAB00" points="686.517,487.163 686.517,609.279 779.214,670.337 779.214,548.221 		"/>
		<polygon fill="#EAAB00" points="1057.303,855.485 1150,855.485 1150,792.455 1057.303,731.397 		"/>
		<polygon fill="#EAAB00" points="779.214,548.221 871.91,609.279 871.91,484.698 779.214,484.698 		"/>
		<polygon fill="#EAAB00" points="871.91,731.396 964.607,792.454 964.607,670.338 871.91,609.279 		"/>
		<polygon fill="#EAAB00" points="779.214,670.337 779.214,855.485 871.91,855.485 871.91,731.396 		"/>
		<polygon fill="#EAAB00" points="600,548.221 600,670.338 600,855.485 686.517,855.485 686.517,609.279 		"/>
		<polygon fill="#EAAB00" points="1057.303,731.397 1057.303,484.698 964.607,484.698 964.607,670.338 		"/>
	</g>
	<g>
		<path d="M316.097,1018.102l1.285-13.492h-0.64l-4.882,12.335l-23.392,40.606h-3.21l-24.798-40.733l-4.629-12.209h-0.64
			l1.798,13.364v60.522h-10.024v-89.948h7.966l28.141,46.002l4.242,10.024h0.253l3.983-10.28l26.855-45.745h8.352v89.948h-10.663
			V1018.102z"/>
		<path d="M404.164,1053.569h-32.987l-8.95,24.927h-10.664l34.049-91.36h4.882l34.182,91.36h-11.31L404.164,1053.569z
			 M374.629,1044.318h26.337l-9.97-27.371l-3.199-13.621h-0.127l-3.199,13.877L374.629,1044.318z"/>
		<path d="M449.475,989.448c3.252-0.597,7-1.068,11.243-1.412c4.242-0.341,8.117-0.516,11.629-0.516
			c3.941,0,7.689,0.431,11.243,1.285c3.555,0.857,6.68,2.272,9.378,4.243c2.704,1.97,4.865,4.541,6.494,7.709
			c1.623,3.168,2.439,7.025,2.439,11.563c0,7.025-1.926,12.722-5.782,17.091c-3.856,4.37-8.739,7.282-14.647,8.739l6.167,4.752
			l22.36,35.594h-12.468l-24.798-38.805l-12.595-1.928v40.733h-10.663V989.448z M472.606,996.772c-1.116,0-2.275,0-3.47,0
			c-1.201,0-2.359,0.045-3.47,0.13c-1.117,0.087-2.167,0.172-3.15,0.256c-0.984,0.088-1.78,0.214-2.378,0.386v33.153h10.024
			c5.914,0,10.797-1.457,14.647-4.369c3.857-2.912,5.788-7.453,5.788-13.621c0-4.626-1.588-8.437-4.756-11.436
			C482.667,998.274,478.255,996.772,472.606,996.772z"/>
		<path d="M550.855,1042.776l-29.68-54.227h12.462l21.074,39.321l2.22,7.837h0.133l2.354-8.093l20.217-39.064h11.309l-29.426,54.097
			v35.851h-10.664V1042.776z"/>
		<path d="M668.814,1078.497h-53.198v-89.948h10.664v80.44h42.534V1078.497z"/>
		<path d="M738.373,1053.569h-32.981l-8.95,24.927h-10.664l34.055-91.36h4.876l34.182,91.36h-11.31L738.373,1053.569z
			 M708.844,1044.318h26.343l-9.982-27.371l-3.186-13.621h-0.133l-3.199,13.877L708.844,1044.318z"/>
		<path d="M799.881,1019.644l-6.94-12.978h-0.513l1.285,12.978v58.852H783.69v-91.36h5.654l43.048,60.006l6.68,12.339h0.64
			l-1.412-12.339v-58.594h10.024v91.36h-5.655L799.881,1019.644z"/>
		<path d="M883.018,988.549c1.623-0.256,3.446-0.449,5.462-0.579c2.01-0.127,4.11-0.211,6.295-0.256
			c2.185-0.043,4.327-0.085,6.427-0.127c2.094-0.043,4.043-0.067,5.842-0.067c7.2,0,13.428,1.117,18.696,3.343
			c5.269,2.227,9.62,5.332,13.047,9.315c3.422,3.983,5.975,8.759,7.641,14.327c1.672,5.57,2.51,11.693,2.51,18.377
			c0,6.083-0.797,11.928-2.377,17.537c-1.588,5.612-4.092,10.582-7.52,14.907c-3.428,4.327-7.882,7.797-13.361,10.407
			c-5.486,2.616-12.125,3.92-19.916,3.92c-1.376,0-3.15-0.021-5.335-0.063c-2.185-0.046-4.436-0.13-6.747-0.256
			c-2.311-0.13-4.454-0.239-6.427-0.323c-1.968-0.085-3.38-0.214-4.237-0.383V988.549z M907.303,997.031c-1.116,0-2.335,0-3.663,0
			c-1.327,0-2.631,0.042-3.916,0.127c-1.285,0.088-2.463,0.172-3.537,0.256c-1.068,0.088-1.907,0.175-2.505,0.26v71.957
			c0.429,0.085,1.243,0.151,2.444,0.193c1.195,0.042,2.439,0.085,3.724,0.127c1.285,0.045,2.528,0.088,3.729,0.13
			c1.195,0.042,2.01,0.063,2.438,0.063c5.999,0,11.032-1.029,15.1-3.084s7.326-4.819,9.765-8.289
			c2.444-3.467,4.176-7.453,5.202-11.949c1.032-4.496,1.545-9.143,1.545-13.94c0-4.197-0.47-8.419-1.412-12.659
			c-0.947-4.239-2.571-8.071-4.882-11.499c-2.317-3.425-5.42-6.234-9.318-8.416C918.118,998.123,913.211,997.031,907.303,997.031z"
			/>
	</g>
</g>
</svg>
