<?xml version="1.0" encoding="UTF-8" standalone="no"?>
<!DOCTYPE svg PUBLIC "-//W3C//DTD SVG 1.1//EN" "http://www.w3.org/Graphics/SVG/1.1/DTD/svg11.dtd">
<svg width="100%" height="100%" viewBox="0 0 1100 736" version="1.1" xmlns="http://www.w3.org/2000/svg" xmlns:xlink="http://www.w3.org/1999/xlink" xml:space="preserve" xmlns:serif="http://www.serif.com/" style="fill-rule:evenodd;clip-rule:evenodd;stroke-linejoin:round;stroke-miterlimit:2;">
    <g transform="matrix(1,0,0,1,-50,-120.091)">
        <g>
            <path d="M600,426.104L600,120.091L507.303,120.091L507.303,365.046L600,426.104Z" style="fill-rule:nonzero;"/>
            <path d="M414.607,303.987L414.607,120.091L321.91,120.091L321.91,242.929L414.607,303.987Z" style="fill-rule:nonzero;"/>
            <path d="M229.213,120.091L140.014,120.091L229.213,181.87L229.213,120.091Z" style="fill-rule:nonzero;"/>
            <path d="M321.91,242.929L229.213,181.87L229.213,303.987L321.91,365.045L321.91,242.929Z" style="fill-rule:nonzero;"/>
            <path d="M142.697,120.091L50,120.091L50,181.87L142.697,242.929L142.697,120.091Z" style="fill-rule:nonzero;"/>
            <path d="M142.697,242.929L142.697,484.698L229.213,484.698L229.213,303.987L142.697,242.929Z" style="fill-rule:nonzero;"/>
            <path d="M414.607,426.104L321.91,365.045L321.91,484.698L414.607,484.698L414.607,426.104Z" style="fill-rule:nonzero;"/>
            <path d="M507.303,487.163L507.303,365.046L414.607,303.987L414.607,426.104L507.303,487.163Z" style="fill-rule:nonzero;"/>
            <path d="M600,484.698L600,426.104L507.303,365.046L507.303,484.698L600,484.698Z" style="fill:rgb(234,171,0);fill-rule:nonzero;"/>
            <path d="M142.697,242.929L50,181.87L50,484.698L142.697,484.698L142.697,242.929Z" style="fill:rgb(234,171,0);fill-rule:nonzero;"/>
            <path d="M414.607,484.698L506.365,484.698L414.607,426.104L414.607,484.698Z" style="fill:rgb(234,171,0);fill-rule:nonzero;"/>
            <path d="M507.303,365.046L507.303,120.091L414.607,120.091L414.607,303.987L507.303,365.046Z" style="fill:rgb(234,171,0);fill-rule:nonzero;"/>
            <path d="M321.91,242.929L321.91,120.091L229.213,120.091L229.213,181.87L321.91,242.929Z" style="fill:rgb(234,171,0);fill-rule:nonzero;"/>
            <path d="M229.213,303.987L229.213,181.87L142.697,120.812L142.697,242.929L229.213,303.987Z" style="fill:rgb(234,171,0);fill-rule:nonzero;"/>
            <path d="M229.213,303.987L229.213,484.698L321.91,484.698L321.91,365.045L229.213,303.987Z" style="fill:rgb(234,171,0);fill-rule:nonzero;"/>
            <path d="M414.607,426.104L414.607,303.987L321.91,242.929L321.91,365.045L414.607,426.104Z" style="fill:rgb(234,171,0);fill-rule:nonzero;"/>
            <path d="M1109.377,330.204L1088.202,330.204L1088.202,350.147C1088.202,363.096 1079.522,373.594 1066.573,373.594C1053.624,373.594 1044.944,363.096 1044.944,350.147L1044.944,330.204L896.629,330.204L896.629,379.642L918.876,379.642C931.825,379.642 942.323,391.412 942.323,404.361C942.323,417.311 931.825,429.08 918.876,429.08L896.629,429.08L896.629,438.072C896.629,451.021 884.269,461.518 871.91,461.518L871.91,484.698L1150,484.698L1150,305.485L1132.825,305.485C1132.825,317.844 1122.327,330.204 1109.377,330.204Z" style="fill:white;fill-rule:nonzero;"/>
            <path d="M612.606,305.485C612.606,293.125 623.103,280.766 636.053,280.766L655.618,280.766L655.618,257.827C655.618,244.878 667.387,234.381 680.337,234.381C693.286,234.381 705.057,244.878 705.057,257.827L705.057,280.766L847.192,280.766L847.192,231.328L826.555,231.328C813.607,231.328 803.11,219.558 803.11,206.609C803.11,193.66 813.608,181.89 826.555,181.89L847.192,181.89L847.192,169.904C847.192,156.955 859.551,146.457 871.911,146.457L871.911,120.092L600,120.092L600,305.485L612.606,305.485Z" style="fill:white;fill-rule:nonzero;"/>
            <path d="M847.191,438.072L847.191,429.08L826.554,429.08C813.606,429.08 803.109,417.311 803.109,404.361C803.109,391.412 813.607,379.642 826.554,379.642L847.191,379.642L847.191,330.204L705.056,330.204L705.056,350.147C705.056,363.096 693.285,373.594 680.336,373.594C667.387,373.594 655.617,363.096 655.617,350.147L655.617,330.204L636.052,330.204C623.102,330.204 612.605,317.844 612.605,305.485L600,305.485L600,484.698L871.91,484.698L871.91,461.518C859.551,461.518 847.191,451.021 847.191,438.072Z" style="fill:rgb(152,30,50);fill-rule:nonzero;"/>
            <path d="M871.91,120.091L871.91,146.456C884.27,146.456 896.629,156.954 896.629,169.903L896.629,181.889L918.876,181.889C931.825,181.889 942.323,193.659 942.323,206.608C942.323,219.557 931.825,231.327 918.876,231.327L896.629,231.327L896.629,280.765L1044.944,280.765L1044.944,257.826C1044.944,244.877 1053.623,234.38 1066.573,234.38C1079.523,234.38 1088.202,244.877 1088.202,257.826L1088.202,280.765L1109.377,280.765C1122.327,280.765 1132.824,293.125 1132.824,305.484L1150,305.484L1150,120.091L871.91,120.091Z" style="fill:rgb(152,30,50);fill-rule:nonzero;"/>
            <path d="M871.91,461.518C884.27,461.518 896.629,451.021 896.629,438.072L896.629,429.08L918.876,429.08C931.825,429.08 942.323,417.311 942.323,404.361C942.323,391.412 931.825,379.642 918.876,379.642L896.629,379.642L896.629,330.204L1044.944,330.204L1044.944,350.147C1044.944,363.096 1053.623,373.594 1066.573,373.594C1079.523,373.594 1088.202,363.096 1088.202,350.147L1088.202,330.204L1109.377,330.204C1122.327,330.204 1132.824,317.844 1132.824,305.485L871.91,305.485L871.91,461.518Z" style="fill:rgb(152,30,50);fill-rule:nonzero;"/>
            <path d="M612.606,305.485C612.606,317.845 623.103,330.204 636.053,330.204L655.618,330.204L655.618,350.147C655.618,363.096 667.387,373.594 680.337,373.594C693.286,373.594 705.057,363.096 705.057,350.147L705.057,330.204L847.192,330.204L847.192,379.642L826.555,379.642C813.607,379.642 803.11,391.412 803.11,404.361C803.11,417.311 813.608,429.08 826.555,429.08L847.192,429.08L847.192,438.072C847.192,451.021 859.551,461.518 871.911,461.518L871.911,305.485L612.606,305.485Z" style="fill:white;fill-rule:nonzero;"/>
            <path d="M1132.825,305.485C1132.825,293.125 1122.327,280.766 1109.378,280.766L1088.203,280.766L1088.203,257.827C1088.203,244.878 1079.523,234.381 1066.574,234.381C1053.625,234.381 1044.945,244.878 1044.945,257.827L1044.945,280.766L896.629,280.766L896.629,231.328L918.876,231.328C931.825,231.328 942.323,219.558 942.323,206.609C942.323,193.66 931.825,181.89 918.876,181.89L896.629,181.89L896.629,169.904C896.629,156.955 884.269,146.457 871.91,146.457L871.91,305.485L1132.825,305.485Z" style="fill:white;fill-rule:nonzero;"/>
            <path d="M847.191,169.903L847.191,181.889L826.554,181.889C813.606,181.889 803.109,193.659 803.109,206.608C803.109,219.557 813.607,231.327 826.554,231.327L847.191,231.327L847.191,280.765L705.056,280.765L705.056,257.826C705.056,244.877 693.285,234.38 680.336,234.38C667.387,234.38 655.617,244.877 655.617,257.826L655.617,280.765L636.052,280.765C623.102,280.765 612.605,293.125 612.605,305.484L871.91,305.484L871.91,146.456C859.551,146.456 847.191,156.954 847.191,169.903Z" style="fill:rgb(152,30,50);fill-rule:nonzero;"/>
            <path d="M583.299,670.091C583.299,682.451 572.801,694.81 559.852,694.81L538.202,694.81L538.202,716.497C538.202,729.446 529.522,739.944 516.572,739.944C503.623,739.944 494.943,729.446 494.943,716.497L494.943,694.81L346.629,694.81L346.629,744.248L369.349,744.248C382.299,744.248 392.796,756.018 392.796,768.967C392.796,781.916 382.299,793.686 369.349,793.686L346.629,793.686L346.629,804.421C346.629,817.37 334.269,827.867 321.91,827.867L321.91,855.483L600,855.483L600,670.091L583.299,670.091Z" style="fill:white;fill-rule:nonzero;"/>
            <path d="M86.526,645.372L105.618,645.372L105.618,624.177C105.618,611.228 117.387,600.731 130.336,600.731C143.285,600.731 155.056,611.228 155.056,624.177L155.056,645.372L297.191,645.372L297.191,595.934L277.029,595.934C264.081,595.934 253.583,584.165 253.583,571.215C253.583,558.265 264.081,546.495 277.029,546.495L297.191,546.495L297.191,536.253C297.191,523.304 309.551,512.806 321.91,512.806L321.91,484.697L50,484.697L50,670.09L63.08,670.09C63.08,657.732 73.578,645.372 86.526,645.372Z" style="fill:white;fill-rule:nonzero;"/>
            <path d="M600,484.698L321.91,484.698L321.91,512.807C334.27,512.807 346.629,523.305 346.629,536.254L346.629,546.496L369.349,546.496C382.299,546.496 392.796,558.267 392.796,571.216C392.796,584.165 382.299,595.935 369.349,595.935L346.629,595.935L346.629,645.373L494.944,645.373L494.944,624.178C494.944,611.229 503.624,600.732 516.573,600.732C529.523,600.732 538.203,611.229 538.203,624.178L538.203,645.373L559.853,645.373C572.801,645.373 583.3,657.733 583.3,670.092L600,670.092L600,484.698Z" style="fill:rgb(152,30,50);fill-rule:nonzero;"/>
            <path d="M297.191,804.422L297.191,793.687L277.029,793.687C264.081,793.687 253.583,781.917 253.583,768.968C253.583,756.019 264.081,744.249 277.029,744.249L297.191,744.249L297.191,694.81L155.056,694.81L155.056,716.497C155.056,729.446 143.285,739.944 130.336,739.944C117.387,739.944 105.618,729.446 105.618,716.497L105.618,694.81L86.526,694.81C73.578,694.81 63.08,682.45 63.08,670.091L50,670.091L50,855.484L321.91,855.484L321.91,827.868C309.551,827.868 297.191,817.371 297.191,804.422Z" style="fill:rgb(152,30,50);fill-rule:nonzero;"/>
            <path d="M321.91,827.868C334.27,827.868 346.629,817.371 346.629,804.422L346.629,793.687L369.349,793.687C382.299,793.687 392.796,781.917 392.796,768.968C392.796,756.019 382.299,744.249 369.349,744.249L346.629,744.249L346.629,694.81L494.944,694.81L494.944,716.497C494.944,729.446 503.624,739.944 516.573,739.944C529.523,739.944 538.203,729.446 538.203,716.497L538.203,694.81L559.853,694.81C572.801,694.81 583.3,682.45 583.3,670.091L321.91,670.091L321.91,827.868Z" style="fill:rgb(152,30,50);fill-rule:nonzero;"/>
            <path d="M63.08,670.091C63.08,682.451 73.578,694.81 86.526,694.81L105.618,694.81L105.618,716.497C105.618,729.446 117.387,739.944 130.336,739.944C143.285,739.944 155.056,729.446 155.056,716.497L155.056,694.81L297.191,694.81L297.191,744.248L277.029,744.248C264.081,744.248 253.583,756.018 253.583,768.967C253.583,781.916 264.081,793.686 277.029,793.686L297.191,793.686L297.191,804.421C297.191,817.37 309.551,827.867 321.91,827.867L321.91,670.091L63.08,670.091Z" style="fill:white;fill-rule:nonzero;"/>
            <path d="M559.852,645.372L538.202,645.372L538.202,624.177C538.202,611.228 529.522,600.731 516.572,600.731C503.623,600.731 494.943,611.228 494.943,624.177L494.943,645.372L346.629,645.372L346.629,595.934L369.349,595.934C382.299,595.934 392.796,584.165 392.796,571.215C392.796,558.265 382.299,546.495 369.349,546.495L346.629,546.495L346.629,536.253C346.629,523.304 334.269,512.806 321.91,512.806L321.91,670.091L583.298,670.091C583.299,657.732 572.8,645.372 559.852,645.372Z" style="fill:white;fill-rule:nonzero;"/>
            <path d="M321.91,512.807C309.55,512.807 297.191,523.305 297.191,536.254L297.191,546.496L277.029,546.496C264.081,546.496 253.583,558.267 253.583,571.216C253.583,584.165 264.081,595.935 277.029,595.935L297.191,595.935L297.191,645.373L155.056,645.373L155.056,624.178C155.056,611.229 143.285,600.732 130.336,600.732C117.387,600.732 105.618,611.229 105.618,624.178L105.618,645.373L86.526,645.373C73.578,645.373 63.08,657.733 63.08,670.092L321.91,670.092L321.91,512.807Z" style="fill:rgb(152,30,50);fill-rule:nonzero;"/>
            <path d="M1057.303,731.397L1150,792.455L1150,484.698L1057.303,484.698L1057.303,731.397Z" style="fill-rule:nonzero;"/>
            <path d="M686.517,609.279L686.517,855.485L779.214,855.485L779.214,670.337L686.517,609.279Z" style="fill-rule:nonzero;"/>
            <path d="M600,484.698L600,548.221L686.517,609.279L686.517,484.698L600,484.698Z" style="fill-rule:nonzero;"/>
            <path d="M964.607,670.338L964.607,792.454L1057.303,853.513L1057.303,731.397L964.607,670.338Z" style="fill-rule:nonzero;"/>
            <path d="M871.91,731.396L871.91,855.485L964.607,855.485L964.607,792.454L871.91,731.396Z" style="fill-rule:nonzero;"/>
            <path d="M779.214,484.698L689.541,484.698L779.214,548.221L779.214,484.698Z" style="fill-rule:nonzero;"/>
            <path d="M964.607,670.338L964.607,484.698L871.91,484.698L871.91,609.279L964.607,670.338Z" style="fill-rule:nonzero;"/>
            <path d="M779.214,548.221L779.214,670.337L871.91,731.396L871.91,609.279L779.214,548.221Z" style="fill-rule:nonzero;"/>
            <path d="M779.214,855.485L686.517,855.485" style="fill:none;fill-rule:nonzero;"/>
            <path d="M871.91,855.485L964.607,855.485" style="fill:none;fill-rule:nonzero;"/>
            <path d="M964.607,855.485L1055.891,855.485L964.607,792.454L964.607,855.485Z" style="fill:rgb(234,171,0);fill-rule:nonzero;"/>
            <path d="M686.517,487.163L686.517,609.279L779.214,670.337L779.214,548.221L686.517,487.163Z" style="fill:rgb(234,171,0);fill-rule:nonzero;"/>
            <path d="M1057.303,855.485L1150,855.485L1150,792.455L1057.303,731.397L1057.303,855.485Z" style="fill:rgb(234,171,0);fill-rule:nonzero;"/>
            <path d="M779.214,548.221L871.91,609.279L871.91,484.698L779.214,484.698L779.214,548.221Z" style="fill:rgb(234,171,0);fill-rule:nonzero;"/>
            <path d="M871.91,731.396L964.607,792.454L964.607,670.338L871.91,609.279L871.91,731.396Z" style="fill:rgb(234,171,0);fill-rule:nonzero;"/>
            <path d="M779.214,670.337L779.214,855.485L871.91,855.485L871.91,731.396L779.214,670.337Z" style="fill:rgb(234,171,0);fill-rule:nonzero;"/>
            <path d="M600,548.221L600,855.485L686.517,855.485L686.517,609.279L600,548.221Z" style="fill:rgb(234,171,0);fill-rule:nonzero;"/>
            <path d="M1057.303,731.397L1057.303,484.698L964.607,484.698L964.607,670.338L1057.303,731.397Z" style="fill:rgb(234,171,0);fill-rule:nonzero;"/>
        </g>
    </g>
</svg>
